<svg width="150" height="150" viewBox="0 0 150 150" fill="none" xmlns="http://www.w3.org/2000/svg">
<path fill-rule="evenodd" clip-rule="evenodd" d="M75 0C84.9033 4.86185e-05 93.5416 5.41003 98.1243 13.4353C98.9271 14.8413 100.616 15.5398 102.177 15.1126C104.419 14.4994 106.779 14.1719 109.215 14.1719C123.913 14.1719 135.827 26.0873 135.827 40.7852C135.827 43.221 135.5 45.5802 134.886 47.8215C134.459 49.3831 135.158 51.0719 136.564 51.8747C144.59 56.4573 150 65.0963 150 75C150 75.3861 149.991 75.7703 149.975 76.1524C149.975 76.1534 149.974 76.1543 149.973 76.1543C149.972 76.1543 149.971 76.1552 149.971 76.1563C149.345 92.202 137.285 105 122.498 105L121.788 104.99C114.206 104.779 107.386 101.203 102.525 95.5726C101.11 93.934 98.4138 93.879 96.9369 95.4618C91.4612 101.33 83.6596 105 75 105C58.4315 105 45 91.5685 45 75C45 58.4315 58.4315 45 75 45C81.7351 45 87.9512 47.2202 92.9579 50.9677C93.7748 51.5792 95 51.0204 95 50C95 47.2386 97.2386 45 100 45C102.761 45 105 47.2386 105 50V75C105.074 86.9334 113.719 94.9998 122.498 95C130.991 95 139.357 87.4511 139.961 76.1553C139.961 76.1547 139.96 76.1543 139.96 76.1543C139.959 76.1543 139.959 76.1538 139.959 76.1533C139.965 76.0702 139.967 75.9868 139.972 75.9033C139.984 75.6054 139.994 75.305 139.996 75.0019C139.996 75.0009 139.997 75 139.998 75C139.999 75 140 74.9991 140 74.998C139.999 68.1878 135.898 62.3126 129.988 59.749L123.771 57.0523C122.286 56.408 121.58 54.7013 122.176 53.1959L124.67 46.8945C125.414 45.0152 125.827 42.9599 125.827 40.7852C125.827 31.7531 118.62 24.4052 109.644 24.1777L109.215 24.1719C107.039 24.1719 104.983 24.5853 103.104 25.3291L96.8039 27.8235C95.2985 28.4195 93.5919 27.7135 92.9475 26.2283L90.25 20.0117C87.7661 14.2863 82.1746 10.2579 75.6357 10.0117L75 10C68.1889 10 62.313 14.1011 59.749 20.0107L57.0523 26.2279C56.408 27.7133 54.7013 28.4195 53.1959 27.8235L46.8945 25.3291C45.1327 24.6317 43.216 24.2249 41.1914 24.1768L40.7852 24.1719C31.6101 24.1719 24.1719 31.6101 24.1719 40.7852C24.1719 42.9597 24.5852 45.0152 25.3291 46.8945L27.8235 53.1959C28.4195 54.7013 27.7133 56.408 26.2279 57.0523L20.0107 59.749C14.1011 62.3129 10 68.1888 10 75C10 81.8106 14.1015 87.6859 20.0117 90.25L26.2283 92.9475C27.7135 93.5919 28.4195 95.2985 27.8235 96.8038L25.3291 103.104C24.5853 104.983 24.1719 107.039 24.1719 109.215C24.1719 118.39 31.6101 125.828 40.7852 125.828C42.9581 125.828 45.0135 125.415 46.8945 124.67L53.1959 122.176C54.7013 121.58 56.408 122.286 57.0523 123.771L59.749 129.988C62.3129 135.899 68.1889 140 75 140C81.8105 140 87.6859 135.899 90.25 129.988L92.1351 125.642C93.2207 123.14 96.1328 121.995 98.632 123.089C101.067 124.154 102.219 126.96 101.234 129.429L99.4238 133.968C95.3317 143.401 85.9375 150 75 150C65.0963 150 56.4573 144.59 51.8747 136.564C51.0719 135.158 49.3831 134.459 47.8215 134.887C45.5802 135.5 43.221 135.828 40.7852 135.828C26.0873 135.828 14.1719 123.913 14.1719 109.215C14.1719 106.779 14.4994 104.419 15.1126 102.177C15.5398 100.616 14.8412 98.9271 13.4353 98.1243C5.40995 93.5416 0 84.9033 0 75C2.77828e-06 65.0965 5.40983 56.4574 13.4353 51.8747C14.8413 51.0719 15.5399 49.3832 15.1127 47.8216C14.4995 45.5803 14.1719 43.221 14.1719 40.7852C14.1719 26.0873 26.0873 14.1719 40.7852 14.1719C43.221 14.1719 45.5803 14.4995 47.8216 15.1127C49.3832 15.5399 51.0719 14.8413 51.8747 13.4353C56.4575 5.4099 65.0966 0 75 0ZM75 55C63.9543 55 55 63.9543 55 75C55 86.0457 63.9543 95 75 95C86.0457 95 95 86.0457 95 75C95 63.9543 86.0457 55 75 55Z" fill="#171E42"/>
</svg>