<?xml version="1.0" encoding="UTF-8" standalone="no"?>
<!-- Created with Inkscape (http://www.inkscape.org/) -->

<svg
   width="84.531631mm"
   height="84.531921mm"
   viewBox="0 0 84.531631 84.531921"
   version="1.1"
   id="svg1"
   inkscape:version="1.4 (e7c3feb1, 2024-10-09)"
   sodipodi:docname="darkshapes_alpha_gray_without_neuron.svg"
   inkscape:export-filename="darkshapes_logo06c.png"
   inkscape:export-xdpi="116"
   inkscape:export-ydpi="116"
   xmlns:inkscape="http://www.inkscape.org/namespaces/inkscape"
   xmlns:sodipodi="http://sodipodi.sourceforge.net/DTD/sodipodi-0.dtd"
   xmlns:xlink="http://www.w3.org/1999/xlink"
   xmlns="http://www.w3.org/2000/svg"
   xmlns:svg="http://www.w3.org/2000/svg">
  <sodipodi:namedview
     id="namedview1"
     pagecolor="#505050"
     bordercolor="#eeeeee"
     borderopacity="1"
     inkscape:showpageshadow="0"
     inkscape:pageopacity="0"
     inkscape:pagecheckerboard="0"
     inkscape:deskcolor="#505050"
     inkscape:document-units="mm"
     inkscape:zoom="2.0731994"
     inkscape:cx="210.0618"
     inkscape:cy="176.29756"
     inkscape:window-width="1512"
     inkscape:window-height="860"
     inkscape:window-x="0"
     inkscape:window-y="38"
     inkscape:window-maximized="1"
     inkscape:current-layer="layer3"
     showguides="true" />
  <defs
     id="defs1">
    <pattern
       inkscape:collect="always"
       xlink:href="#pattern105-1-5"
       preserveAspectRatio="xMidYMid"
       id="pattern107-9-7"
       patternTransform="matrix(2.2,0,0,2.2,466.25149,271.55008)" />
    <pattern
       inkscape:collect="always"
       xlink:href="#pattern78-4-0"
       preserveAspectRatio="xMidYMid"
       id="pattern105-1-5"
       patternTransform="matrix(2.2,0,0,2.2,466.25702,141.35541)" />
    <pattern
       inkscape:collect="always"
       xlink:href="#pattern21-1-8-6"
       preserveAspectRatio="xMidYMid"
       id="pattern78-4-0"
       patternTransform="matrix(2.2,0,0,2.2,349.5,182.25)"
       x="-2"
       y="0" />
    <pattern
       patternUnits="userSpaceOnUse"
       width="40"
       height="40"
       patternTransform="translate(349.5,182.25)"
       preserveAspectRatio="xMidYMid"
       id="pattern21-1-8-6"
       style="fill:#575757"
       inkscape:label="Abstract fill 3"
       inkscape:collect="always"
       inkscape:isstock="true">
      <path
         id="path19-0-8-4"
         style="stroke-width:4.8561;stroke-linecap:square;paint-order:stroke markers fill;stop-color:#000000"
         d="M 10,0 C 4.47715,0 0,4.47715 0,10 V 20 H 10 C 15.52285,20 20,15.52285 20,10 20,4.47715 15.52285,0 10,0 Z M 30,0 C 24.47715,0 20,4.47715 20,10 V 20 H 30 C 35.52285,20 40,15.52285 40,10 40,4.47715 35.52285,0 30,0 Z M 10,40 c 5.52285,0 10,-4.47715 10,-10 V 20 H 10 C 4.47715,20 0,24.47715 0,30 0,35.52285 4.47715,40 10,40 Z m 20,0 c 5.52285,0 10,-4.47715 10,-10 V 20 H 30 c -5.52285,0 -10,4.47715 -10,10 0,5.52285 4.47715,10 10,10 z" />
    </pattern>
  </defs>
  <g
     inkscape:label="Layer 1"
     inkscape:groupmode="layer"
     id="layer1"
     transform="translate(-156.22387,-426.7838)">
    <rect
       style="opacity:0.00100002;fill:none;fill-opacity:1;stroke:#000000;stroke-width:0.0001;stroke-dasharray:none;paint-order:markers fill stroke"
       id="rect6"
       width="84.53154"
       height="84.531837"
       x="156.22391"
       y="426.78384"
       rx="0"
       ry="0"
       inkscape:export-filename="../darkshapes_logo06c.png"
       inkscape:export-xdpi="116"
       inkscape:export-ydpi="116"
       inkscape:label="rect104" />
  </g>
  <g
     inkscape:groupmode="layer"
     id="layer2"
     inkscape:label="Layer 2"
     style="display:inline"
     transform="translate(-156.22387,-426.7838)">
    <g
       id="g10"
       transform="translate(0.86371743,89.287283)"
       style="display:inline"
       inkscape:export-filename="../darkshapes_logo06d.png"
       inkscape:export-xdpi="116"
       inkscape:export-ydpi="116">
      <g
         id="g5"
         style="display:inline">
        <path
           id="path3"
           style="display:inline;opacity:1;fill:#575757;stroke:none;stroke-width:0.263;stroke-dasharray:none;stroke-opacity:1;paint-order:markers fill stroke"
           d="m 238.01991,364.21431 h -40.09804 c -0.32393,0.0888 -0.56584,0.18957 -0.75396,0.31729 -2.26782,1.53969 -3.12511,6.04475 -1.71566,9.01495 0.1741,0.36689 0.3324,0.7769 0.67829,1.17229 0.46825,0.49889 0.92161,0.82134 1.43783,1.16349 0.51838,0.32237 0.86156,0.52707 2.00659,0.66352 h 38.46742 c -0.002,-4.11052 0.012,-8.22112 -0.0225,-12.33154 z"
           sodipodi:nodetypes="ccsscccccc" />
      </g>
      <path
         id="path9"
         style="display:inline;fill:#575757;fill-opacity:1;stroke:none;stroke-width:5.16257;paint-order:markers fill stroke"
         d="m 166.438,360.77007 c -0.11378,-10e-6 -0.22417,0.009 -0.33331,0.0233 l -0.82424,0.50798 -0.0176,0.0119 -1.96887,1.27848 -1.1467,0.92191 -0.28939,0.24804 -0.25533,0.21859 -0.60255,0.51625 -2.12959,2.49856 -1.31981,1.97197 c -0.11682,0.19946 -0.21818,0.36028 -0.34107,0.57309 l 0.001,29.21475 h 24.0621 l 0.84077,-0.0295 0.66198,-0.0248 c 3.24338,-0.30861 6.05204,-1.93979 8.44496,-4.03437 0,0 0.28383,-0.34369 0.28681,-0.35657 0.64695,-0.73746 1.54878,-2.09553 2.28358,-3.60908 0.9033,-1.86066 0.97417,-1.93813 0.9741,-1.99575 V 395.23 h 38.46742 c 1.14504,-0.13645 1.48821,-0.34116 2.00659,-0.66353 0.78635,-0.489 1.73861,-1.54018 2.11615,-2.33577 1.40945,-2.97021 0.55216,-7.47527 -1.71565,-9.01496 -0.18812,-0.12772 -0.43003,-0.22846 -0.75396,-0.31729 H 194.7874 l -0.0244,-2.4e-4 0.0529,-12.18646 c -1.20515,-2.87922 -4.2191,-6.06779 -5.23893,-7.22245 0,0 -0.67387,-0.50549 -0.68525,-0.49971 -1.54714,-1.04125 -3.34462,-1.73254 -5.425,-1.93529 -0.84527,-0.0733 -2.04589,-0.12055 -3.60029,-0.15916 0,0 -0.29384,-0.001 -0.29249,-0.008 -2.06328,-0.0474 -4.80846,-0.0796 -8.74934,-0.11679 -1.48846,0.005 -2.92145,0.002 -4.38681,0 z"
         sodipodi:nodetypes="ccccccccccccccccccccccscscccccccccccc" />
      <path
         d="m 238.02691,365.38013 c 0.002,0.17168 0.002,0.40909 0.003,0.60099 l 0.008,-0.60358 z"
         style="display:inline;opacity:1;fill:none;stroke-width:0.600001;paint-order:markers fill stroke"
         id="path4" />
    </g>
  </g>
  <g
     inkscape:groupmode="layer"
     id="layer3"
     inkscape:label="Layer 3"
     style="display:none">
    <g
       id="g2"
       style="display:none"
       transform="translate(-156.7404,-337.52396)">
      <path
         d="m 238.0412,368.30103 -42.05893,6.67608 c 0.33441,0.51094 0.72967,0.94286 1.18442,1.25161 0.18812,0.12771 0.43003,0.22846 0.75396,0.31729 h 40.09833 c 0.008,-0.88298 0.0222,-2.16045 0.0222,-3.94136 z"
         style="display:none;fill:#575757;fill-opacity:1;stroke-width:5.16257;paint-order:markers fill stroke"
         id="path6" />
      <path
         d="m 199.57378,364.21446 c -1.14504,0.13645 -1.48822,0.34116 -2.0066,0.66353 -0.78635,0.489 -1.73861,1.54017 -2.11615,2.33577 -0.85677,1.80551 -0.87245,4.17439 -0.2453,6.10222 0.11259,0.34611 0.62663,1.18563 0.77951,1.49749 l 16.53713,-3.97357 25.51886,-5.40019 v -1.22525 z"
         style="display:none;fill:#575757;fill-opacity:1;stroke-width:5.16257;paint-order:markers fill stroke"
         id="path7"
         sodipodi:nodetypes="cccsccccc" />
    </g>
    <path
       d="m 188.68831,452.38403 c -0.76863,-0.51526 -1.60857,-0.96607 -2.5523,-1.34566 -1.4119,-0.56789 -2.26835,-0.77538 -6.46627,-0.88832 l -0.37207,4.59714 c -0.15508,1.14411 0.0802,2.18978 0.52761,3.22099 l 0.38292,0.88367 c -1.56915,-0.86751 -2.69343,-1.13612 -5.13095,-1.01079 0.0106,-0.0999 1.07736,-0.20286 1.9575,-0.95498 0.12198,-0.10427 0.23104,-0.19888 0.31523,-0.29508 0.34362,-0.39261 0.56318,-0.83415 0.71934,-1.30121 0.1223,-0.36579 0.43048,-1.60836 0.96583,-5.15472 -2.06412,-0.0475 -4.78567,-0.08 -8.73228,-0.11731 l -11.66131,-0.11007 c 4.8542,4.03942 9.56173,7.69028 10.18543,7.89668 0.68448,0.22649 0.96556,0.54756 1.54461,0.6382 0.79354,0.12428 1.96527,-0.63984 2.8453,-0.38344 0.451,0.13153 0.648,-0.10286 1.09399,0 -2.3225,0.83623 -1.97929,2.6752 -5.15059,3.64061 -0.29286,-0.42498 -0.17123,-0.43474 -0.40256,-0.91003 -0.24016,-0.49366 -0.0915,-1.10639 0.0749,-1.78593 -1.15577,-1.39123 -5.6499,-5.08765 -10.79004,-9.10177 l -1.35495,-0.0129 v 17.3979 c 1.88229,0.27392 3.55001,0.5185 4.65243,0.70073 0.73297,0.12109 1.39925,-0.46939 2.47581,-1.39268 0.80532,-0.69068 0.75448,-0.62488 1.6769,-1.56631 0.19143,-0.19537 -0.16815,0.5932 -0.26716,0.98857 -0.67807,2.70645 -0.54088,4.70849 -0.0103,6.00222 -0.69154,-0.0829 -2.59469,-3.43672 -3.3321,-3.49798 -0.50025,-0.0416 -2.6507,-0.36723 -5.19554,-0.75551 v 1.25626 11.20345 c 7.77852,-5.72261 8.73897,-7.02491 8.77155,-7.15719 0.27083,0.73911 0.25921,1.10128 1.30018,2.39365 -3.03042,1.15798 -6.54625,3.12389 -10.07173,5.32836 v 7.36493 l 13.38729,-0.14625 c 0.55853,-1.80901 1.054,-3.62894 1.3994,-5.4653 0.0372,-0.19798 0.24093,-1.3106 0.38499,-2.31614 0.0942,-0.6579 -0.66155,-1.60947 -0.68265,-1.88825 -0.12817,-0.34523 0.10713,-0.78509 0.44597,-1.25419 1.1427,-1.02346 0.63992,-2.92601 2.40451,-3.10782 2.26543,-0.47803 5.15619,4.46706 4.5191,5.49889 -0.2454,0.39748 -0.0898,0.13074 -0.50281,0.6475 -0.16729,0.20934 -0.32544,0.4713 -0.55707,0.5271 -1.15963,0.27938 -1.54085,0.58364 -1.83968,0.7922 -0.22272,0.15544 -0.42295,0.34028 -0.62581,0.52142 -1.76042,1.57191 -3.09109,3.67603 -4.15013,6.03477 4.99395,-0.0551 8.3175,-0.10674 10.67222,-0.25425 l -1.9358,-7.24503 c 1.36984,-0.23485 2.51208,-1.2581 3.51038,-1.86449 -1.47064,1.10406 -2.28252,1.88395 -1.84692,3.74964 l 1.25315,5.28547 c 3.6972,-0.31814 4.7439,-0.99723 6.95979,-2.67115 0.47004,-0.35509 0.87233,-0.72936 1.25212,-1.12293 -2.0934,-2.21754 -4.25351,-4.32038 -6.53242,-6.19291 -0.94714,-0.77825 -2.39716,-1.40656 -3.37292,-2.11873 -1.25748,0.0198 -2.13964,-0.75323 -2.16938,-1.20199 -0.21968,-1.06076 1.63305,-3.91308 3.34088,-2.83911 0.46512,0.29249 1.25535,0.68965 1.16892,1.6428 -0.0303,0.33298 0.39384,0.88397 0.50643,1.27744 0.53473,0.70215 0.92454,1.31328 1.33015,1.91461 0.4056,0.60131 0.82728,1.19243 1.26246,1.77405 0.43518,0.58164 0.8836,1.15345 1.3441,1.71514 0.46048,0.56167 0.93285,1.11375 1.41439,1.6552 0.48151,0.54149 0.97202,1.07261 1.47019,1.5937 0.16231,0.16977 0.32966,0.33157 0.49351,0.49919 0.675,-0.75821 1.26227,-1.63289 1.87069,-2.82566 l 1.39113,-2.72749 v -8.99325 -4.47311 l -7.14582,1.38958 -1.78025,0.34572 c -1.56497,0.28564 -2.05487,0.45339 -2.89337,0.74776 -0.29011,0.10179 -0.53516,0.84506 -0.80563,0.94154 -1.46859,0.52382 -2.44483,-1.61596 -2.06809,-2.50579 0.16093,-0.37998 0.42561,-0.95178 1.56373,-0.79013 0.86907,0.90759 3.4145,0.63608 3.99252,0.56844 0.59678,-0.0697 1.16692,-0.13848 1.71307,-0.20619 3.11378,-0.38643 5.4077,-0.74334 7.42384,-1.10381 v -3.90674 l -1.30846,-2.65825 c -0.94927,-1.92825 -2.12002,-3.41549 -3.62303,-4.57233 -1.34777,2.01898 -2.63019,4.06922 -3.74189,6.20633 -0.50403,0.98189 -1.25622,1.93856 -0.93328,3.06493 l 0.11524,0.68162 -0.31575,0.49919 h -2.08772 c -2.29016,-0.3727 -2.71565,-1.23158 -3.29541,-2.46186 -0.24137,-0.4572 -0.29794,-0.49674 0.1509,-0.74001 0.19625,-0.10516 0.44267,-0.23531 0.69866,-0.36329 2.03265,-1.01618 1.67959,-0.30632 2.81843,-1.01544 0.24191,-0.15066 0.52402,-0.35808 0.90124,-0.65371 0.26764,-0.20975 0.53062,-0.4297 0.78962,-0.65835 1.58517,-1.39957 2.99777,-3.14537 4.26589,-5.00176 z"
       style="display:none;fill:url(#pattern107-9-7);stroke-width:1.38378;paint-order:markers fill stroke"
       id="path1"
       inkscape:label="path1"
       transform="translate(-156.22387,-426.78379)" />
  </g>
</svg>
