<svg xmlns="http://www.w3.org/2000/svg" viewBox="0 0 24 24" fill="none" role="img"><title>Manual</title><path d="M4 6.5C4 5.67 4.67 5 5.5 5H10.5C11.88 5 13 6.12 13 7.5V19C13 17.9 12.1 17 11 17H5.5C4.67 17 4 16.33 4 15.5V6.5Z" stroke="#111111" stroke-width="1.6" stroke-linecap="round" stroke-linejoin="round"/><path d="M20 6.5C20 5.67 19.33 5 18.5 5H13.5C12.12 5 11 6.12 11 7.5V19C11 17.9 11.9 17 13 17H18.5C19.33 17 20 16.33 20 15.5V6.5Z" stroke="#111111" stroke-width="1.6" stroke-linecap="round" stroke-linejoin="round"/></svg>
