<svg xmlns="http://www.w3.org/2000/svg" viewBox="2.5 2.5 27 27" role="img" aria-label="sol pbc logo">
  <title>sol pbc</title>
  <path fill="#F5C740" d="M16.0 2.5 L18.6 7.3 A9.1 9.1 0 0 0 13.4 7.3 Z M23.9 5.1 L23.2 10.5 A9.1 9.1 0 0 0 19.0 7.4 Z M28.8 11.8 L25.1 15.8 A9.1 9.1 0 0 0 23.5 10.9 Z M28.8 20.2 L23.5 21.1 A9.1 9.1 0 0 0 25.1 16.2 Z M23.9 26.9 L19.0 24.6 A9.1 9.1 0 0 0 23.2 21.5 Z M16.0 29.5 L13.4 24.7 A9.1 9.1 0 0 0 18.6 24.7 Z M8.1 26.9 L8.8 21.5 A9.1 9.1 0 0 0 13.0 24.6 Z M3.2 20.2 L6.9 16.2 A9.1 9.1 0 0 0 8.5 21.1 Z M3.2 11.8 L8.5 10.9 A9.1 9.1 0 0 0 6.9 15.8 Z M8.1 5.1 L13.0 7.4 A9.1 9.1 0 0 0 8.8 10.5 Z"/>
  <circle cx="16" cy="16" r="8.0" fill="none" stroke="#E8923A" stroke-width="1.2"/>
  <path fill="#E8923A" fill-rule="evenodd" d="M10.175 19.821C10.400 19.821 10.557 19.664 10.557 19.439V17.414C10.902 17.834 11.412 18.096 12.005 18.096C13.100 18.096 13.925 17.204 13.925 16.019C13.925 14.834 13.032 13.934 11.855 13.934C10.685 13.934 9.800 14.834 9.792 16.019V19.439C9.792 19.664 9.950 19.821 10.175 19.821ZM11.855 17.421C11.097 17.421 10.527 16.821 10.527 16.019C10.527 15.216 11.097 14.609 11.855 14.609C12.612 14.609 13.190 15.216 13.190 16.019C13.190 16.821 12.612 17.421 11.855 17.421Z M16.272 18.096C17.450 18.096 18.342 17.196 18.342 16.011C18.342 14.826 17.517 13.934 16.422 13.934C15.830 13.934 15.320 14.196 14.975 14.616V12.591C14.975 12.366 14.817 12.209 14.592 12.209C14.367 12.209 14.210 12.366 14.210 12.591V16.011C14.217 17.196 15.102 18.096 16.272 18.096ZM16.272 17.421C15.515 17.421 14.945 16.814 14.945 16.011C14.945 15.209 15.515 14.609 16.272 14.609C17.030 14.609 17.607 15.209 17.607 16.011C17.607 16.814 17.030 17.421 16.272 17.421Z M20.697 18.096C21.245 18.096 21.695 17.924 22.047 17.594C22.190 17.459 22.167 17.264 21.995 17.121C21.867 17.016 21.680 17.031 21.522 17.159C21.305 17.339 21.042 17.421 20.697 17.421C19.902 17.421 19.362 16.829 19.362 16.019C19.362 15.171 19.887 14.609 20.660 14.609C21.035 14.609 21.320 14.729 21.575 14.999C21.710 15.141 21.897 15.179 22.040 15.081C22.220 14.954 22.265 14.766 22.130 14.609C21.740 14.159 21.252 13.934 20.660 13.934C19.475 13.934 18.627 14.804 18.627 16.019C18.627 17.204 19.490 18.096 20.697 18.096Z"/>
</svg>
