<?xml version="1.0" encoding="UTF-8" standalone="no"?>
<!-- Created with Inkscape (http://www.inkscape.org/) -->

<svg
   width="210mm"
   height="297mm"
   viewBox="0 0 210 297"
   version="1.1"
   id="svg1"
   inkscape:version="1.4.3 (0d15f75, 2025-12-25)"
   sodipodi:docname="tiles_t_dirty_1.1.svg"
   xmlns:inkscape="http://www.inkscape.org/namespaces/inkscape"
   xmlns:sodipodi="http://sodipodi.sourceforge.net/DTD/sodipodi-0.dtd"
   xmlns="http://www.w3.org/2000/svg"
   xmlns:svg="http://www.w3.org/2000/svg">
  <sodipodi:namedview
     id="namedview1"
     pagecolor="#505050"
     bordercolor="#eeeeee"
     borderopacity="1"
     inkscape:showpageshadow="0"
     inkscape:pageopacity="0"
     inkscape:pagecheckerboard="0"
     inkscape:deskcolor="#505050"
     inkscape:document-units="mm"
     inkscape:zoom="0.39424274"
     inkscape:cx="100.19208"
     inkscape:cy="772.3668"
     inkscape:window-width="1728"
     inkscape:window-height="1056"
     inkscape:window-x="0"
     inkscape:window-y="33"
     inkscape:window-maximized="1"
     inkscape:current-layer="layer1" />
  <defs
     id="defs1" />
  <g
     inkscape:label="Layer 1"
     inkscape:groupmode="layer"
     id="layer1">
    <g
       id="g5"
       inkscape:export-filename="T_dirty_black_25.png"
       inkscape:export-xdpi="25"
       inkscape:export-ydpi="25"
       transform="matrix(1.7339342,0,0,1.7339342,15.231377,-212.29845)">
      <rect
         style="fill:none;stroke-width:0;stroke-dasharray:none"
         id="rect1"
         width="105.25486"
         height="104.00164"
         x="-0.8557868"
         y="156.08" />
      <path
         id="path1261"
         style="stroke-width:1.95165"
         d="m 80.29186,167.90984 -64.536308,17.03753 -2.603104,0.0727 -8.8827809,9.2217 -1.4920715,1.47708 13.3730004,-3.54792 64.536825,-17.03762 1.174626,0.40256 1.434482,-0.38047 15.206523,-4.0346 -9.589257,-1.69035 z m 21.8973,3.2029 -52.74499,13.89724 -1.693347,0.66447 -14.090993,3.7387 -1.174625,-0.4026 -1.43499,0.38097 -14.264735,3.78483 -0.224811,0.0602 -0.716993,0.1902 -14.4895535,3.8443 9.5897785,1.69033 8.621427,1.5207 21.861246,-5.8006 2.603104,-0.73898 0.850691,-0.81959 6.470945,-1.71691 c 0.541254,0.26654 1.228199,0.59094 1.955201,0.89875 l -10.758889,2.882 -22.923725,6.1405 7.452308,2.09284 0.606347,-0.69297 9.663384,-2.58909 1.151584,-0.0349 0.217307,-0.0108 -10.005359,19.2562 -2.397308,0.24582 -5.560205,10.71439 0.05312,0.0563 1.778943,6.92715 1.521127,5.92463 1.38742,-2.70167 -1.15461,-0.59181 0.188254,-0.36752 1.154608,0.59075 0.571798,-1.11403 1.233198,-2.36829 1.205158,0.62988 0.832163,-0.61234 5.102561,-9.73648 0.03012,-0.0484 0.921765,-1.81096 0.04448,-0.29542 -0.128126,-0.25086 -0.526224,-0.28389 0.418072,-0.5327 -0.09804,-0.44413 -0.182238,-0.82163 -0.215806,-0.97443 0.258863,-0.44811 0.310429,1.1592 1.04094,-2.02084 11.97857,-22.78854 0.749038,-0.44065 0.04297,0.0649 -4.838688,9.30385 0.177759,0.57379 -0.26789,0.47671 -0.0076,0.0174 -0.171733,0.34648 -2.508979,4.84518 0.02008,0.28892 -0.109091,-0.11467 -0.702978,1.31984 0.477163,2.19454 -0.214306,0.0844 -0.73552,0.16879 -0.419584,0.80815 h -0.0076 l -0.389558,0.75954 -4.290945,8.26045 0.07352,-0.0427 -5.630286,10.97269 0.0076,0.0175 -3.136337,6.16152 0.204297,0.70294 0.03012,0.10267 1.158583,3.99496 h 3.042232 l 4.022558,-7.68258 0.01144,-0.0129 -0.308422,-1.06552 -0.744525,-2.55856 2.682203,-1.57922 -0.0108,0.0339 0.100631,0.48813 -0.866205,1.50005 0.231828,0.43116 h 0.604836 l 1.88811,-3.60102 0.0365,-0.0213 1.153108,-2.24707 0.90924,-1.7349 0.919779,3.41672 8.964409,-17.15128 -0.181246,-0.15568 -0.782584,-0.67049 0.135133,0.0726 -0.09005,-0.33601 0.491189,-0.85068 -0.665438,-2.05282 3.187912,-0.85418 -1.05246,-0.63734 -2.92853,0.78451 -0.426106,-1.59113 0.139149,-0.48522 2.234589,-0.59878 1.855567,0.7791 1.013409,2.61457 -0.176744,0.99739 -3.751688,7.25299 1.225176,0.66651 0.548779,-0.34802 1.3774,-0.84915 1.352362,-0.83471 0.308443,-0.57776 -0.348996,-1.04593 -0.898745,-2.69373 -0.193274,0.11967 0.420589,-0.78714 0.07309,-0.13714 0.346479,-0.67194 0.716983,-1.38638 0.707481,-1.36887 1.190151,-0.53775 -0.429593,-1.6037 0.744535,-0.17131 2.66319,-2.26365 -1.28728,-4.80311 0.282887,-0.9723 0.762545,-1.42254 1.876103,-0.50266 1.022423,-0.27392 4.977373,-9.5111 14.471027,-3.83986 8.40112,-2.21053 2.489943,-1.21064 2.121958,-2.25918 z m -44.405952,24.52346 0.425091,0.67695 0.0076,0.0426 -0.260849,0.56478 0.615859,2.29871 0.09404,-0.0251 -0.179734,0.37954 -0.08767,0.1287 -0.417068,0.63085 -0.09804,0.14766 -0.81763,-3.05224 -0.04513,-0.1682 0.301911,-0.61379 -0.02213,-0.0301 z m -16.101268,4.37409 0.01609,0.062 0.73702,1.26569 h -0.0043 l -5.171661,9.9443 -9.72e-4,0.0854 -0.996867,-0.34048 -0.02105,0.0417 0.0043,-2.99515 2.110923,-4.22489 1.897633,-3.79771 z m 3.375172,12.0036 0.361498,1.3494 1.662791,0.89467 -2.57756,5.0004 v 5.7e-4 l 0.0076,0.15968 -0.06359,-0.0514 0.05549,-0.10866 -0.742528,1.43891 -1.316344,0.38804 -0.801586,-3.27546 0.622349,-1.56371 0.703485,-0.22382 2.064357,-3.60449 z m -11.222039,4.12372 0.730014,2.72524 -0.815126,1.70584 0.695454,3.56993 0.148705,0.0707 0.07223,0.25984 -0.357492,0.70256 -0.559771,-0.24135 -1.038445,-3.8013 1.449014,-2.84692 -0.185769,-0.51824 -1.588186,3.12082 0.602321,2.31071 -1.207157,2.4058 0.04815,0.27042 0.314424,0.26887 0.351986,0.14668 0.936795,0.4647 -1.768947,3.32352 -2.123425,1.20269 0.06014,-0.26238 -0.946824,-2.57349 -0.521214,-1.46458 z m 7.596511,9.07405 -0.903249,1.74993 -1.051445,0.29338 -0.490185,-0.49869 0.532228,-1.03798 0.842171,-0.22527 z m -1.250235,6.58756 -1.646273,3.1809 2.187526,0.36304 0.340973,-0.1933 z"
         inkscape:export-filename="T_dirty_black_25.png"
         inkscape:export-xdpi="25"
         inkscape:export-ydpi="25" />
    </g>
  </g>
</svg>
