<?xml version="1.0" encoding="UTF-8" standalone="no"?>
<!-- Created with Inkscape (http://www.inkscape.org/) -->

<svg
   width="210mm"
   height="297mm"
   viewBox="0 0 210 297"
   version="1.1"
   id="svg1"
   inkscape:version="1.4.3 (0d15f75, 2025-12-25)"
   sodipodi:docname="tiles_t_clean_1.1_white.svg"
   xmlns:inkscape="http://www.inkscape.org/namespaces/inkscape"
   xmlns:sodipodi="http://sodipodi.sourceforge.net/DTD/sodipodi-0.dtd"
   xmlns="http://www.w3.org/2000/svg"
   xmlns:svg="http://www.w3.org/2000/svg">
  <sodipodi:namedview
     id="namedview1"
     pagecolor="#505050"
     bordercolor="#eeeeee"
     borderopacity="1"
     inkscape:showpageshadow="0"
     inkscape:pageopacity="0"
     inkscape:pagecheckerboard="0"
     inkscape:deskcolor="#505050"
     inkscape:document-units="mm"
     inkscape:zoom="0.5627787"
     inkscape:cx="218.55838"
     inkscape:cy="654.78668"
     inkscape:window-width="1728"
     inkscape:window-height="1056"
     inkscape:window-x="0"
     inkscape:window-y="33"
     inkscape:window-maximized="1"
     inkscape:current-layer="layer1" />
  <defs
     id="defs1" />
  <g
     inkscape:label="Layer 1"
     inkscape:groupmode="layer"
     id="layer1">
    <g
       id="g4"
       inkscape:export-filename="T_clean_white_25.png"
       inkscape:export-xdpi="25"
       inkscape:export-ydpi="25"
       transform="matrix(1.7339297,0,0,1.7339297,-170.63802,-212.29752)">
      <rect
         style="fill:#565656;fill-opacity:0.01;stroke:none;stroke-width:0;stroke-dasharray:none"
         id="rect1-7"
         width="105.25486"
         height="104.00164"
         x="106.33981"
         y="156.08" />
      <path
         id="path1262"
         style="stroke-width:1.91804;fill:#ffffff;fill-opacity:1"
         d="m 186.99621,168.60179 -63.42476,16.74409 -2.5583,0.0714 -8.72979,9.06288 -1.46642,1.45163 13.14273,-3.48681 63.42524,-16.74416 1.15447,0.39563 1.40975,-0.37392 14.94459,-3.96512 -9.42404,-1.66122 z m 21.52021,3.14773 -51.83664,13.65787 -1.66407,0.65303 -13.84832,3.6743 -1.15447,-0.39566 -1.41022,0.37442 -14.01904,3.71962 -0.22102,0.0591 -0.70463,0.18692 -14.23996,3.77808 9.42463,1.66124 8.47287,1.4945 21.48478,-5.7007 2.5583,-0.72626 0.83595,-0.80549 6.35955,-1.68731 c 0.5319,0.26196 1.20702,0.58075 1.92156,0.88328 l -10.57365,2.83235 -22.52888,6.03473 7.32394,2.05679 0.59588,-0.68103 9.49701,-2.54449 1.13169,-0.0343 0.2136,-0.0105 -17.7122,29.33853 1.85918,7.22052 1.49497,5.82259 2.51936,0.2392 9.79465,-16.03992 -0.13185,-0.99982 5.60606,-8.9788 1.57476,-0.31462 -16.57289,27.50485 1.02603,3.53729 h 2.98985 l 35.41478,-58.46823 22.47821,-5.94619 2.44708,-1.18978 2.08544,-2.22029 z"
         sodipodi:nodetypes="cccccccccccccccccccccccccccccccccccccccccccccccccccc"
         inkscape:export-filename="T_clean_blk_25.png"
         inkscape:export-xdpi="25"
         inkscape:export-ydpi="25" />
    </g>
  </g>
</svg>
